<svg width="483" height="261" viewBox="0 0 483 261" fill="none" xmlns="http://www.w3.org/2000/svg">
<path d="M345.5 1.13584C394.5 -10.364 422.5 68.1358 420.5 115.636C418.5 163.136 405 223.136 356 233.136C301.5 229.136 289 151.636 289 142.136H304C307.833 166.303 324 214.336 358 213.136C359.498 212.636 322 209.134 312.5 142.136H340L336 132.136H253.5L196.5 260.136L166 120.136L137 211.136L103 132.136L94 150.136H0L8 135.136H85L103 96.6358C113 119.969 133.4 166.636 135 166.636C136.6 166.636 157.667 97.9692 168 63.6358L201 207.636L242.5 117.136H361C361.667 110.969 360.1 96.9357 348.5 90.1358C348.1 90.1358 325 91.1358 313.5 91.6358C314.833 70.969 325.6 27.7358 358 20.1358C344 18.3025 313.8 29.7363 305 90.1358H289C291.5 64.3023 306.3 10.3358 345.5 1.13584ZM391.5 1.00009C405.267 2.70669 417.195 13.6558 426.401 30.0001H435C448 35.0001 469.5 56.5002 469.5 117H482C482.333 119.833 482.3 126.8 479.5 132H469.5C464.333 155.167 467.5 181.5 435.5 204.5H424.176C415.87 216.694 405.08 226.465 391.5 232.5H375C448 209 452 23.5001 375 1.00009H391.5ZM431.238 39.627C450.425 82.4171 453.682 151.048 429.557 195.642C464.794 167.776 463.771 65.6929 431.238 39.627ZM346 184H379.5V174.5H346V184ZM346 167.5H379.5V158H346V167.5ZM373 86.0001C381.833 95.8334 394.2 121.6 373 146C386.333 136.5 405 111.2 373 86.0001ZM355 52.5001H343V61.0001H355V74.0001H364.5V62.0001L376.5 61.0001V52.5001H364.5V40.0001H355V52.5001Z" fill="#003EC7"/>
</svg>
